<svg width="43" height="49" viewBox="0 0 43 49" fill="none" xmlns="http://www.w3.org/2000/svg">
<path d="M18.8125 49C13.3927 48.336 8.90234 46.0011 5.34141 41.9953C1.78047 37.9894 0 33.2864 0 27.8862C0 24.9648 0.582292 22.1651 1.74688 19.4871C2.91146 16.8092 4.56875 14.4743 6.71875 12.4824L10.5484 16.2669C8.84635 17.7719 7.55859 19.5203 6.68516 21.5122C5.81172 23.5041 5.375 25.6287 5.375 27.8862C5.375 31.7814 6.62917 35.2229 9.1375 38.2107C11.6458 41.1985 14.8708 43.0244 18.8125 43.6883V49ZM24.1875 49V43.6883C28.0844 42.9801 31.2982 41.1432 33.8289 38.1775C36.3596 35.2118 37.625 31.7814 37.625 27.8862C37.625 23.4598 36.0573 19.6974 32.9219 16.5989C29.7865 13.5005 25.9792 11.9512 21.5 11.9512H21.2984L24.2547 14.8726L20.4922 18.5908L11.0859 9.29539L20.4922 0L24.2547 3.71816L21.2984 6.63957H21.5C27.5021 6.63957 32.5859 8.69783 36.7516 12.8144C40.9172 16.9309 43 21.9548 43 27.8862C43 33.2421 41.2195 37.923 37.6586 41.9289C34.0977 45.9347 29.6073 48.2918 24.1875 49Z" fill="white"/>
</svg>
