<svg width="309" height="241" viewBox="0 0 309 241" fill="none" xmlns="http://www.w3.org/2000/svg">
<g clip-path="url(#clip0_721_6)">
<path d="M178.291 0.53833C187.669 0.731613 196.687 1.201 205.677 2.25024C218.07 3.68605 230.187 6.30916 241.971 10.3957C249.302 12.9359 256.439 15.9456 263.189 19.8388C271.405 24.588 278.708 30.4969 285.236 37.3722C289.386 41.7348 293.148 46.4288 296.384 51.5093C301.889 60.1794 305.264 69.6225 306.813 79.756C307.533 84.45 307.92 89.1716 308.058 93.9208C308.39 105.407 306.647 116.59 303.217 127.552C300.312 136.884 296.246 145.665 291.322 154.086C286.453 162.37 280.644 169.963 274.337 177.17C265.955 186.723 256.882 195.504 246.619 203.042C237.213 209.945 227.171 215.798 216.577 220.658C200.698 227.975 184.128 233.166 166.921 236.369C158.263 237.998 149.549 239.047 140.78 239.71C132.924 240.29 125.095 240.538 117.239 240.538C113.808 240.538 110.434 240.207 107.059 239.848C98.8704 238.964 90.8204 237.253 82.7428 235.568C68.856 232.669 56.1034 227.119 44.1806 219.526C40.6397 217.262 37.1265 214.998 33.7516 212.513C25.2868 206.272 18.4263 198.596 12.8384 189.733C9.07623 183.769 5.97798 177.473 3.54363 170.847C0.500701 162.536 -0.522831 154.004 0.390049 145.195C1.71787 132.411 4.34586 119.931 8.5783 107.782C9.65716 104.662 10.7084 101.514 11.7595 98.3662C11.8425 98.1453 11.8425 97.8968 11.9532 97.6759C15.1898 92.3193 17.3475 86.438 20.3904 80.9985C22.9354 76.4426 25.4804 71.8867 28.5233 67.6345C36.02 57.1145 44.9828 48.0027 55.2735 40.1886C66.5323 31.6566 78.5381 24.3119 91.346 18.3202C100.696 13.9576 110.434 10.6718 120.365 7.99345C129.466 5.56364 138.733 3.85173 148.083 2.60921C158.235 1.25624 168.415 0.648773 178.291 0.483109V0.53833ZM91.1247 34.0864C90.3225 34.1416 89.216 34.1693 88.1095 34.3901C85.5368 34.9148 83.0748 35.7707 80.6958 36.82C75.4675 39.167 70.7094 42.2871 66.2833 45.9318C58.676 52.2272 52.2305 59.5995 46.4766 67.6069C43.6827 71.4725 41.359 75.5867 39.3949 79.9217C38.2331 82.4619 37.4032 85.085 36.8776 87.791C36.352 90.5245 36.1307 93.2857 36.6009 96.0468C37.0159 98.5319 38.0117 100.741 39.8375 102.508C42.1612 104.717 44.8722 105.628 48.1087 104.965C50.7091 104.441 52.8115 103.143 54.5819 101.238C55.2458 100.548 55.8267 99.802 56.4906 99.1117C64.5959 90.4417 73.0055 82.0478 81.415 73.6538C85.5645 69.5121 89.5479 65.2323 93.2824 60.704C95.3018 58.2466 97.2106 55.7339 98.6767 52.9175C99.9492 50.4325 100.862 47.837 101.166 45.0482C101.415 42.7841 101.111 40.6028 99.9492 38.6423C98.0405 35.4394 95.1359 33.976 91.1247 34.0588V34.0864ZM141.056 14.5926C135.137 14.6755 130.489 16.0284 126.174 18.5687C124.044 19.8388 122.19 21.4127 120.669 23.4007C119.535 24.9194 118.926 26.6037 119.064 28.4813C119.286 31.27 120.42 33.6723 122.495 35.5499C126.201 38.9185 130.794 40.299 135.607 40.0781C141.444 39.802 146.672 37.5379 151.126 33.6998C152.205 32.7611 153.145 31.6842 153.837 30.4417C155.967 26.6037 155.358 22.241 152.26 19.1209C151.402 18.265 150.462 17.5747 149.438 16.9672C146.561 15.3105 143.491 14.427 141.029 14.5926H141.056ZM121.72 54.7951C118.373 54.7951 115.33 55.8167 112.508 57.5011C110.185 58.8816 108.082 60.5383 106.201 62.4711C105.039 63.6584 104.099 65.039 103.518 66.6129C102.439 69.5121 103.13 72.8255 105.261 74.6755C106.782 76.0008 108.525 76.8292 110.599 76.9672C113.255 77.1329 115.772 76.6911 118.29 75.918C122.384 74.6755 125.925 72.5494 129.023 69.6225C129.881 68.7942 130.628 67.883 131.236 66.8614C133.477 62.9682 132.398 58.7712 128.58 56.3966C126.478 55.0988 124.154 54.7951 121.775 54.7951H121.72Z" fill="#F9D780"/>
<path d="M41.1934 92.2917C41.2763 89.0611 41.9403 86.1619 43.0468 83.3455C44.8172 78.9277 47.0579 74.7583 49.7689 70.8651C55.0249 63.2995 61.0001 56.369 67.9988 50.3773C72.3972 46.5945 77.1829 43.3916 82.4666 40.9893C84.9286 39.8573 87.4459 39.0013 90.1569 38.6423C91.1804 38.5043 92.204 38.4767 93.1998 38.7804C95.1639 39.3603 96.2704 40.6856 96.5471 42.646C96.7407 43.9162 96.6024 45.1587 96.2981 46.4012C95.5512 49.2728 94.2234 51.8407 92.5083 54.2429C89.327 58.6884 85.7861 62.8301 81.9963 66.751C74.5273 74.4822 67.003 82.1582 59.5616 89.9171C56.9336 92.6506 54.4163 95.4946 51.9266 98.3662C50.9861 99.4431 49.8519 100.078 48.5241 100.41C46.0344 101.017 43.766 100.051 42.4105 97.8692C41.3317 96.1021 41.221 94.1417 41.1934 92.3469V92.2917Z" fill="#FCF1BE"/>
<path d="M140.42 18.7896C143.657 18.7068 146.534 19.6732 148.968 21.7717C151.292 23.7873 151.596 26.7141 149.77 29.1992C149.3 29.8342 148.747 30.3865 148.166 30.9387C147.06 31.9603 145.815 32.8163 144.487 33.5342C142.689 34.5282 140.752 35.2461 138.788 35.8812C137.875 36.1849 136.935 36.2401 135.994 35.9916C134.086 35.4946 132.094 35.3566 130.24 34.6387C128.913 34.1417 127.612 33.5618 126.395 32.7887C125.206 32.0708 124.376 31.0216 123.878 29.7238C123.325 28.288 123.408 26.935 124.404 25.7201C125.565 24.2843 126.893 23.0694 128.47 22.1306C132.149 19.9217 136.16 18.8448 140.42 18.7896Z" fill="#FCF1BE"/>
<path d="M128.249 61.9466C128.028 62.4712 127.834 62.9958 127.558 63.4652C125.926 66.2264 123.768 68.5181 121.112 70.3405C118.346 72.2457 115.303 72.7703 112.066 72.3009C111.209 72.1629 110.351 72.1629 109.521 71.7487C107.723 70.8651 107.17 69.4293 107.972 67.6346C108.111 67.3585 108.249 67.0547 108.443 66.8062C111.292 62.7749 114.971 59.9585 119.923 58.9921C121.555 58.6608 123.215 58.6884 124.874 59.1578C126.313 59.572 127.475 60.3175 128.249 61.919V61.9466Z" fill="#FCF1BE"/>
<path d="M277.629 86.3828C276.107 85.8029 274.475 85.4716 272.76 85.4716C265.291 85.4716 259.233 91.5185 259.233 98.9737C259.233 104.027 262.027 108.417 266.149 110.736C258.486 122.333 248.278 132.743 236.328 141.799C236.383 141.137 236.439 140.474 236.439 139.784C236.439 128.822 227.531 119.931 216.549 119.931C205.567 119.931 196.659 128.822 196.659 139.784C196.659 148.316 202.053 155.55 209.605 158.366C188.36 169.135 164.515 176.397 141.139 179.434C141.637 178.109 141.942 176.7 141.942 175.182C141.942 168.555 136.575 163.198 129.936 163.198C123.297 163.198 117.93 168.555 117.93 175.182C117.93 177.308 118.539 179.296 119.507 181.035C113.283 181.146 107.169 180.897 101.222 180.317C101.222 180.262 101.222 180.235 101.222 180.179C101.222 174.436 96.5467 169.77 90.7928 169.77C86.1177 169.77 82.1896 172.862 80.8618 177.114C70.4881 174.933 61.5253 172.2 53.835 169.08C58.2887 167.975 61.6083 163.999 61.6083 159.195C61.6083 153.562 57.0439 149.006 51.4006 149.006C45.7574 149.006 41.193 153.562 41.193 159.195C41.193 160.824 41.6079 162.315 42.2719 163.668C30.8194 157.538 22.9631 150.58 17.5411 143.953C18.0667 143.125 18.3987 142.158 18.3987 141.109C18.3987 138.21 16.0473 135.89 13.1704 135.89C12.7831 135.89 12.4235 135.946 12.0638 136.028C5.86733 125.288 5.70135 116.949 5.70135 116.949C3.12869 126.171 1.38592 135.614 0.390049 145.195C-0.522831 154.004 0.500701 162.536 3.54363 170.847C5.97798 177.473 9.1039 183.769 12.8384 189.733C18.3987 198.596 25.2868 206.272 33.7516 212.513C37.1265 214.998 40.6397 217.289 44.1806 219.526C56.1034 227.119 68.8837 232.669 82.7428 235.568C90.7928 237.253 98.8427 238.964 107.059 239.848C110.434 240.207 113.836 240.538 117.239 240.538C125.095 240.538 132.924 240.29 140.752 239.682C149.521 239.02 158.235 237.97 166.894 236.341C184.072 233.111 200.643 227.947 216.549 220.63C227.144 215.743 237.185 209.917 246.591 203.014C256.854 195.476 265.927 186.696 274.309 177.142C280.644 169.935 286.453 162.342 291.294 154.059C296.218 145.637 300.285 136.857 303.189 127.524C306.62 116.562 308.362 105.38 308.03 93.8931C307.892 89.144 307.505 84.4224 306.786 79.7284C305.209 69.5949 301.862 60.1518 296.357 51.4817C293.12 46.4012 289.358 41.7072 285.208 37.3446C281.557 33.5066 277.629 29.9999 273.452 26.7693C282.359 48.3064 282.995 68.3524 277.656 86.3552L277.629 86.3828Z" fill="#FFAA33"/>
</g>
<defs>
<clipPath id="clip0_721_6">
<rect width="240" height="308" fill="white" transform="matrix(0 -1 1 0 0.0585938 240.538)"/>
</clipPath>
</defs>
</svg>
